<svg width="1920" height="1083" viewBox="0 0 1920 1083" fill="none" xmlns="http://www.w3.org/2000/svg">
<rect width="1920" height="1080" transform="matrix(-1 0 0 1 1920 0)" fill="white"/>
<path d="M75 0L75 1080" stroke="#F8E9E9" stroke-width="5"/>
<path d="M150 0L150 1080" stroke="#F8E9E9" stroke-width="5"/>
<path d="M225 0L225 1080" stroke="#F8E9E9" stroke-width="5"/>
<path d="M300 0L300 1080" stroke="#F8E9E9" stroke-width="5"/>
<path d="M374 0L374 1080" stroke="#F8E9E9" stroke-width="5"/>
<path d="M0 204L1920 204" stroke="#F8E9E9" stroke-width="5"/>
<path d="M0 129L1920 129" stroke="#F8E9E9" stroke-width="5"/>
<path d="M0 54L1920 54" stroke="#F8E9E9" stroke-width="5"/>
<path d="M71 278L1506 278" stroke="#F8E9E9" stroke-width="5"/>
<path d="M0 353L1920 353" stroke="#F8E9E9" stroke-width="5"/>
<path d="M0 727L1920 727" stroke="#F8E9E9" stroke-width="5"/>
<path d="M0 428L1920 428" stroke="#F8E9E9" stroke-width="5"/>
<path d="M0 802L1920 802" stroke="#F8E9E9" stroke-width="5"/>
<path d="M0 278L1920 278" stroke="#F8E9E9" stroke-width="5"/>
<path d="M0 652L1920 652" stroke="#F8E9E9" stroke-width="5"/>
<path d="M0 577L1920 577" stroke="#F8E9E9" stroke-width="5"/>
<path d="M0 951L1920 951" stroke="#F8E9E9" stroke-width="5"/>
<path d="M0 1026H1920" stroke="#F8E9E9" stroke-width="5"/>
<path d="M0 503L1920 503" stroke="#F8E9E9" stroke-width="5"/>
<path d="M0 876L1920 876" stroke="#F8E9E9" stroke-width="5"/>
<path d="M449 0L449 1080" stroke="#F8E9E9" stroke-width="5"/>
<path d="M524 0L524 1080" stroke="#F8E9E9" stroke-width="5"/>
<path d="M599 0L599 1080" stroke="#F8E9E9" stroke-width="5"/>
<path d="M673 0L673 1080" stroke="#F8E9E9" stroke-width="5"/>
<path d="M748 0L748 1080" stroke="#F8E9E9" stroke-width="5"/>
<path d="M823 0L823 1080" stroke="#F8E9E9" stroke-width="5"/>
<path d="M897 0L897 1080" stroke="#F8E9E9" stroke-width="5"/>
<path d="M972 0L972 1080" stroke="#F8E9E9" stroke-width="5"/>
<path d="M1047 0L1047 1080" stroke="#F8E9E9" stroke-width="5"/>
<path d="M1122 0L1122 1080" stroke="#F8E9E9" stroke-width="5"/>
<path d="M1196 0L1196 1080" stroke="#F8E9E9" stroke-width="5"/>
<path d="M1271 0L1271 1080" stroke="#F8E9E9" stroke-width="5"/>
<path d="M1346 0L1346 1080" stroke="#F8E9E9" stroke-width="5"/>
<path d="M1421 0L1421 1080" stroke="#F8E9E9" stroke-width="5"/>
<path d="M1495 0L1495 1080" stroke="#F8E9E9" stroke-width="5"/>
<path d="M1570 0L1570 1080" stroke="#F8E9E9" stroke-width="5"/>
<path d="M1645 0L1645 1080" stroke="#F8E9E9" stroke-width="5"/>
<path d="M1719 0L1719 1080" stroke="#F8E9E9" stroke-width="5"/>
<path d="M1792.23 1081.77C1793.21 1082.74 1794.79 1082.74 1795.77 1081.77L1811.68 1065.86C1812.65 1064.88 1812.65 1063.3 1811.68 1062.32C1810.7 1061.35 1809.12 1061.35 1808.14 1062.32L1794 1076.46L1779.86 1062.32C1778.88 1061.35 1777.3 1061.35 1776.32 1062.32C1775.35 1063.3 1775.35 1064.88 1776.32 1065.86L1792.23 1081.77ZM1791.5 0L1791.5 1080H1796.5L1796.5 0L1791.5 0Z" fill="#F8E9E9"/>
<path d="M1867.23 1081.77C1868.21 1082.74 1869.79 1082.74 1870.77 1081.77L1886.68 1065.86C1887.65 1064.88 1887.65 1063.3 1886.68 1062.32C1885.7 1061.35 1884.12 1061.35 1883.14 1062.32L1869 1076.46L1854.86 1062.32C1853.88 1061.35 1852.3 1061.35 1851.32 1062.32C1850.35 1063.3 1850.35 1064.88 1851.32 1065.86L1867.23 1081.77ZM1866.5 0L1866.5 1080H1871.5L1871.5 0L1866.5 0Z" fill="#F8E9E9"/>
</svg>
