<svg width="1873" height="977" viewBox="0 0 1873 977" fill="none" xmlns="http://www.w3.org/2000/svg">
<path d="M1869 2V977" stroke="#F8E9E9" stroke-width="5"/>
<path d="M1869 2V977" stroke="#F8E9E9" stroke-width="5"/>
<path d="M1794 2V977" stroke="#F8E9E9" stroke-width="5"/>
<path d="M1719 2V977" stroke="#F8E9E9" stroke-width="5"/>
<path d="M1644 2V977" stroke="#F8E9E9" stroke-width="5"/>
<path d="M1570 2V977" stroke="#F8E9E9" stroke-width="5"/>
<path d="M0 825L1871 825" stroke="#F8E9E9" stroke-width="5"/>
<path d="M0 900L1871 900" stroke="#F8E9E9" stroke-width="5"/>
<path d="M1873 751L438 751" stroke="#F8E9E9" stroke-width="5"/>
<path d="M0 676L1871 676" stroke="#F8E9E9" stroke-width="5"/>
<path d="M0 302L1871 302" stroke="#F8E9E9" stroke-width="5"/>
<path d="M0 601L1871 601" stroke="#F8E9E9" stroke-width="5"/>
<path d="M0 227L1871 227" stroke="#F8E9E9" stroke-width="5"/>
<path d="M0 751L1871 751" stroke="#F8E9E9" stroke-width="5"/>
<path d="M0 377L1871 377" stroke="#F8E9E9" stroke-width="5"/>
<path d="M0 452L1871 452" stroke="#F8E9E9" stroke-width="5"/>
<path d="M0 78L1871 78" stroke="#F8E9E9" stroke-width="5"/>
<path d="M0 3L1872 3" stroke="#F8E9E9" stroke-width="5"/>
<path d="M0 526L1871 526" stroke="#F8E9E9" stroke-width="5"/>
<path d="M0 153L1871 153" stroke="#F8E9E9" stroke-width="5"/>
<path d="M1495 2V977" stroke="#F8E9E9" stroke-width="5"/>
<path d="M1420 2V977" stroke="#F8E9E9" stroke-width="5"/>
<path d="M1345 2V977" stroke="#F8E9E9" stroke-width="5"/>
<path d="M1271 2V977" stroke="#F8E9E9" stroke-width="5"/>
<path d="M1196 2V977" stroke="#F8E9E9" stroke-width="5"/>
<path d="M1121 2V977" stroke="#F8E9E9" stroke-width="5"/>
<path d="M1047 2V977" stroke="#F8E9E9" stroke-width="5"/>
<path d="M972 2L972 977" stroke="#F8E9E9" stroke-width="5"/>
<path d="M897 2L897 977" stroke="#F8E9E9" stroke-width="5"/>
<path d="M822 2L822 977" stroke="#F8E9E9" stroke-width="5"/>
<path d="M748 2L748 977" stroke="#F8E9E9" stroke-width="5"/>
<path d="M673 2L673 977" stroke="#F8E9E9" stroke-width="5"/>
<path d="M598 2L598 977" stroke="#F8E9E9" stroke-width="5"/>
<path d="M523 2L523 977" stroke="#F8E9E9" stroke-width="5"/>
<path d="M449 2L449 977" stroke="#F8E9E9" stroke-width="5"/>
<path d="M374 2L374 977" stroke="#F8E9E9" stroke-width="5"/>
<path d="M299 2L299 977" stroke="#F8E9E9" stroke-width="5"/>
<path d="M225 2L225 977" stroke="#F8E9E9" stroke-width="5"/>
<path d="M150 2L150 977" stroke="#F8E9E9" stroke-width="5"/>
<path d="M75 2L75 977" stroke="#F8E9E9" stroke-width="5"/>
<path d="M75 2L75 977" stroke="#F8E9E9" stroke-width="5"/>
</svg>
